<?xml version="1.0" encoding="UTF-8"?>
<svg xmlns="http://www.w3.org/2000/svg" fill="none" viewBox="0 0 24 24"><path fill="#313663" fill-rule="evenodd" d="M23 8a1 1 0 0 0-1-1H2a1 1 0 0 0-1 1v8.5a.5.5 0 0 0 .5.5h1c.276 0 .496-.226.541-.498a3 3 0 0 1 5.918 0c.045.273.265.498.541.498h5c.276 0 .496-.226.541-.498a3 3 0 0 1 5.918 0c.045.273.265.498.541.498h1a.5.5 0 0 0 .5-.5zM9 9.5a.5.5 0 0 1 .5-.5h5a.5.5 0 0 1 .5.5v2a.5.5 0 0 1-.5.5h-5a.5.5 0 0 1-.5-.5zm-1 0a.5.5 0 0 0-.5-.5h-4a.5.5 0 0 0-.5.5v2a.5.5 0 0 0 .5.5h4a.5.5 0 0 0 .5-.5zm8 0a.5.5 0 0 1 .5-.5h4a.5.5 0 0 1 .5.5v2a.5.5 0 0 1-.5.5h-4a.5.5 0 0 1-.5-.5z" clip-rule="evenodd" style="fill: #ffffff;"/><path fill="#313663" d="M18 19a2 2 0 1 0 0-4 2 2 0 0 0 0 4M8 17a2 2 0 1 1-4 0 2 2 0 0 1 4 0" style="fill: #ffffff;"/></svg>
