<?xml version="1.0" encoding="UTF-8"?>
<svg xmlns="http://www.w3.org/2000/svg" fill="none" viewBox="0 0 24 24"><path fill="#313663" fill-rule="evenodd" d="M11.228 3.177a.25.25 0 0 1 .354 0l1.89 1.89a.5.5 0 0 1 0 .707l-1.23 1.23h7.099a1 1 0 0 1 .919.607l2.473 5.767a1 1 0 0 1-.21 1.1l-1.23 1.233a1 1 0 0 1-.708.294H2a1 1 0 0 1-1-1v-7a1 1 0 0 1 1-1h8.827l1.584-1.584-1.537-1.537a.25.25 0 0 1 0-.354zm7.886 6.165A.5.5 0 0 0 18.64 9H15v3h4.653a.25.25 0 0 0 .237-.329z" clip-rule="evenodd" style="fill: #ffffff;"/><path fill="#313663" d="M1 17.25a.25.25 0 0 1 .25-.25h21.5a.25.25 0 0 1 .25.25v.5a.25.25 0 0 1-.25.25H1.25a.25.25 0 0 1-.25-.25z" style="fill: #ffffff;"/></svg>
