<?xml version="1.0" encoding="UTF-8"?>
<svg xmlns="http://www.w3.org/2000/svg" fill="none" viewBox="0 0 24 24"><path fill="#313663" fill-rule="evenodd" d="M15 4.5a.5.5 0 0 0-.5-.5h-5a.5.5 0 0 0-.5.5V6H7.354a2 2 0 0 0-1.857 1.257L4 11a2 2 0 0 0-2 2v5a1 1 0 0 0 1 1h1v1.5a.5.5 0 0 0 .5.5h3a.5.5 0 0 0 .5-.5v-1a.5.5 0 0 1 .5-.5h7a.5.5 0 0 1 .5.5v1a.5.5 0 0 0 .5.5h3a.5.5 0 0 0 .5-.5V19h1a1 1 0 0 0 1-1v-5a2 2 0 0 0-2-2l-1.497-3.743A2 2 0 0 0 16.646 6H15zM7 14a1 1 0 0 0-1-1H5a1 1 0 0 0-1 1v1a1 1 0 0 0 1 1h1a1 1 0 0 0 1-1zm10 0a1 1 0 0 1 1-1h1a1 1 0 0 1 1 1v1a1 1 0 0 1-1 1h-1a1 1 0 0 1-1-1zm-.99-5.674A.5.5 0 0 0 15.54 8H8.46a.5.5 0 0 0-.47.326l-.74 2a.5.5 0 0 0 .468.674h8.564a.5.5 0 0 0 .468-.674z" clip-rule="evenodd" style="fill: #ffffff;"/></svg>
