<?xml version="1.0" encoding="UTF-8"?>
<svg xmlns="http://www.w3.org/2000/svg" fill="none" viewBox="0 0 24 24"><path fill="#313663" fill-rule="evenodd" d="M12.411 5.416 10.827 7h-7.96a1 1 0 0 0-.99.858l-.806 5.647a1 1 0 0 0 .283.848l1.353 1.354a1 1 0 0 0 .707.293H4.75a.25.25 0 0 1 .25.25v.25a.5.5 0 0 0 .5.5h4a.5.5 0 0 0 .5-.5v-.25a.25.25 0 0 1 .25-.25h3.5a.25.25 0 0 1 .25.25v.25a.5.5 0 0 0 .5.5h4a.5.5 0 0 0 .5-.5v-.25a.25.25 0 0 1 .25-.25h1.336a1 1 0 0 0 .707-.293l1.353-1.354a1 1 0 0 0 .283-.848l-.806-5.647a1 1 0 0 0-.99-.858h-8.891l1.23-1.231a.5.5 0 0 0 0-.707l-1.89-1.89a.25.25 0 0 0-.354 0l-.354.353a.25.25 0 0 0 0 .354zM15 9H9v3h6zm1 0h3.5a.5.5 0 0 1 .5.5V12h-4zM8 9H4.5a.5.5 0 0 0-.5.5V12h4z" clip-rule="evenodd" style="fill: #ffffff;"/><path fill="#313663" d="M1 17.25a.25.25 0 0 1 .25-.25h21.5a.25.25 0 0 1 .25.25v.5a.25.25 0 0 1-.25.25H1.25a.25.25 0 0 1-.25-.25z" style="fill: #ffffff;"/></svg>
