<?xml version="1.0" encoding="UTF-8"?>
<svg xmlns="http://www.w3.org/2000/svg" fill="none" viewBox="0 0 24 24"><path fill="#313663" fill-rule="evenodd" d="M8.99 15.002c-1.95 0-2.98.44-3.89.83-.576.249-1.098.474-1.872.59-.348.052-.608-.29-.496-.624l1.154-3.455a.5.5 0 0 1 .474-.341h1.28a.5.5 0 0 0 .474-.342l1.328-3.975a1 1 0 0 1 .948-.683H12V6.31a.5.5 0 0 1 .276-.448l3-1.5a.5.5 0 0 1 .724.448V6h1.28a1 1 0 0 1 .948.684l1.544 4.633a1 1 0 0 0 .949.684h1.585a.5.5 0 0 1 .474.658l-.696 2.082a.52.52 0 0 1-.429.345c-1.133.142-1.878.452-2.555.745l-.005.002c-.838.359-1.558.668-3.105.668s-2.267-.309-3.105-.668l-.005-.002c-.9-.39-1.93-.83-3.89-.83m8.316-3a.5.5 0 0 0 .475-.658l-.667-2a.5.5 0 0 0-.474-.342H15v3zm-3.306-3H9.36a.5.5 0 0 0-.474.342l-.667 2a.5.5 0 0 0 .475.658H14z" clip-rule="evenodd" style="fill: #ffffff;"/><path fill="#313663" d="m19.095 17.834.005-.002c.41-.178.843-.36 1.375-.509.364-.101.67.252.55.61l-.42 1.254a.51.51 0 0 1-.295.312q-.114.046-.229.094l-.191.079c-.91.39-1.94.83-3.9.83-1.95 0-2.98-.44-3.89-.83-.84-.36-1.57-.67-3.11-.67-1.537 0-2.257.308-3.095.667l-.005.003c-.91.39-1.94.83-3.89.83q-.093 0-.181-.002a.475.475 0 0 1-.436-.635l.343-1.022a.52.52 0 0 1 .474-.348 7.9 7.9 0 0 0 2.9-.663c.91-.39 1.94-.83 3.89-.83 1.96 0 2.99.44 3.89.83.84.36 1.57.67 3.11.67 1.547 0 2.267-.309 3.105-.668" style="fill: #ffffff;"/></svg>
